<?xml version="1.0" encoding="utf-8"?>
<!-- Generator: Adobe Illustrator 25.2.3, SVG Export Plug-In . SVG Version: 6.00 Build 0)  -->
<svg version="1.1" id="Layer_1" xmlns="http://www.w3.org/2000/svg" xmlns:xlink="http://www.w3.org/1999/xlink" x="0px" y="0px"
	 viewBox="0 0 70 70" style="enable-background:new 0 0 70 70;" xml:space="preserve">
<style type="text/css">
	.st0{fill:#FFFFFF;}
	.st1{fill:#1B1B32;}
</style>
<g>
	<polygon class="st0" points="8.2,0 8.2,4.1 4.1,4.1 4.1,8.2 0,8.2 0,61.8 4.1,61.8 4.1,65.9 8.2,65.9 8.2,70 61.8,70 61.8,65.9 
		65.9,65.9 65.9,61.8 70,61.8 70,8.2 65.9,8.2 65.9,4.1 61.8,4.1 61.8,0 	"/>
	<path class="st1" d="M35,32.9V20.6h-4.1v-4.1H10.3v37.1h20.6v-4.1H35V37.1h-4.1V33L35,32.9L35,32.9z M26.8,45.3h-4.1v4.1h-4.1V37.1
		h8.2V45.3z M26.8,32.9h-8.2V20.6h4.1v4.1h4.1V32.9z"/>
	<rect x="43.2" y="20.6" class="st1" width="12.4" height="4.1"/>
	<path class="st1" d="M59.7,41.2V33h-4.1v-4.1H43.2V33h-4.1v16.5h4.1v4.1h12.4v-4.1h4.1v-4.1h-8.2v4.1h-4.1v-8.2L59.7,41.2
		L59.7,41.2z M47.4,32.9h4.1V37h-4.1V32.9z"/>
</g>
</svg>
