<?xml version="1.0" encoding="utf-8"?>
<!-- Generator: Adobe Illustrator 25.2.3, SVG Export Plug-In . SVG Version: 6.00 Build 0)  -->
<svg version="1.1" id="Layer_1" xmlns="http://www.w3.org/2000/svg" xmlns:xlink="http://www.w3.org/1999/xlink" x="0px" y="0px"
	 viewBox="0 0 70 70" style="enable-background:new 0 0 70 70;" xml:space="preserve">
<style type="text/css">
	.st0{fill:#FFFFFF;}
	.st1{fill:#1B1B32;}
</style>
<g>
	<polygon class="st0" points="8.2,0 8.2,4.1 4.1,4.1 4.1,8.2 0,8.2 0,61.8 4.1,61.8 4.1,65.9 8.2,65.9 8.2,70 61.8,70 61.8,65.9 
		65.9,65.9 65.9,61.8 70,61.8 70,8.2 65.9,8.2 65.9,4.1 61.8,4.1 61.8,0 	"/>
	<g>
		<rect x="20.6" y="49.4" class="st1" width="4.1" height="4.1"/>
		<rect x="49.4" y="45.3" class="st1" width="4.1" height="4.1"/>
		<rect x="28.8" y="28.8" class="st1" width="4.1" height="4.1"/>
		<rect x="37.1" y="28.8" class="st1" width="4.1" height="4.1"/>
		<rect x="32.9" y="24.7" class="st1" width="4.1" height="4.1"/>
		<rect x="45.3" y="49.4" class="st1" width="4.1" height="4.1"/>
		<rect x="16.5" y="45.3" class="st1" width="4.1" height="4.1"/>
		<rect x="37.1" y="41.2" class="st1" width="4.1" height="4.1"/>
		<rect x="45.3" y="41.2" class="st1" width="4.1" height="4.1"/>
		<rect x="16.5" y="20.6" class="st1" width="4.1" height="4.1"/>
		<rect x="49.4" y="20.6" class="st1" width="4.1" height="4.1"/>
		<rect x="20.6" y="16.5" class="st1" width="4.1" height="4.1"/>
		<rect x="45.3" y="16.5" class="st1" width="4.1" height="4.1"/>
		<polygon class="st1" points="53.5,24.7 53.5,32.9 41.2,32.9 41.2,41.2 45.3,41.2 45.3,37.1 53.5,37.1 53.5,45.3 57.6,45.3 
			57.6,24.7 		"/>
		<polygon class="st1" points="45.3,53.5 45.3,57.6 24.7,57.6 24.7,53.5 32.9,53.5 32.9,45.3 37.1,45.3 37.1,53.5 		"/>
		<polygon class="st1" points="16.5,45.3 16.5,37.1 28.8,37.1 28.8,32.9 16.5,32.9 16.5,24.7 12.4,24.7 12.4,45.3 		"/>
		<polygon class="st1" points="24.7,12.4 24.7,16.5 37.1,16.5 37.1,24.7 41.2,24.7 41.2,16.5 45.3,16.5 45.3,12.4 		"/>
		<rect x="24.7" y="20.6" class="st1" width="8.2" height="4.1"/>
	</g>
</g>
</svg>
