<?xml version="1.0" encoding="utf-8"?>
<!-- Generator: Adobe Illustrator 25.2.3, SVG Export Plug-In . SVG Version: 6.00 Build 0)  -->
<svg version="1.1" id="Layer_1" xmlns="http://www.w3.org/2000/svg" xmlns:xlink="http://www.w3.org/1999/xlink" x="0px" y="0px"
	 viewBox="0 0 150 150" style="enable-background:new 0 0 150 150;" xml:space="preserve">
<style type="text/css">
	.st0{fill:#FFFFFF;}
	.st1{fill:#C1C5DB;}
	.st2{fill:#1B1B32;}
</style>
<g>
	<rect x="140.9" y="19" class="st0" width="6.6" height="112"/>
	<rect x="2.5" y="19" class="st0" width="6.6" height="112"/>
	<polygon class="st1" points="15.7,12.4 15.7,19 9.1,19 9.1,131 15.7,131 15.7,137.6 134.3,137.6 134.3,131 140.9,131 140.9,19 
		134.3,19 134.3,12.4 	"/>
	<rect x="15.7" y="137.6" class="st0" width="118.6" height="6.6"/>
	<rect x="134.3" y="131" class="st0" width="6.6" height="6.6"/>
	<rect x="9.1" y="131" class="st0" width="6.6" height="6.6"/>
	<rect x="9.1" y="12.4" class="st0" width="6.6" height="6.6"/>
	<rect x="15.7" y="5.8" class="st0" width="118.6" height="6.6"/>
	<rect x="134.3" y="12.4" class="st0" width="6.6" height="6.6"/>
	<rect x="48.7" y="65.1" class="st2" width="6.6" height="6.6"/>
	<rect x="55.2" y="91.5" class="st2" width="6.6" height="6.6"/>
	<rect x="81.6" y="98.1" class="st2" width="6.6" height="6.6"/>
	<polygon class="st2" points="114.5,65.1 114.5,58.5 107.9,58.5 107.9,51.9 101.4,51.9 101.4,45.4 94.8,45.4 94.8,38.8 88.2,38.8 
		88.2,45.4 81.6,45.4 81.6,51.9 75,51.9 75,58.5 55.2,58.5 55.2,65.1 75,65.1 75,71.7 81.6,71.7 81.6,78.3 88.2,78.3 88.2,98.1 
		94.8,98.1 94.8,78.3 101.4,78.3 101.4,71.7 108,71.7 108,65.1 	"/>
	<polygon class="st2" points="81.6,104.7 81.6,111.2 42.1,111.2 42.1,71.7 48.7,71.7 48.7,98.1 55.2,98.1 55.2,104.6 	"/>
	<polyline class="st2" points="61.8,78.3 61.8,91.5 75,91.5 75,78.3 	"/>
</g>
</svg>
