<?xml version="1.0" encoding="utf-8"?>
<!-- Generator: Adobe Illustrator 25.2.3, SVG Export Plug-In . SVG Version: 6.00 Build 0)  -->
<svg version="1.1" id="Layer_1" xmlns="http://www.w3.org/2000/svg" xmlns:xlink="http://www.w3.org/1999/xlink" x="0px" y="0px"
	 viewBox="0 0 70 70" style="enable-background:new 0 0 70 70;" xml:space="preserve">
<style type="text/css">
	.st0{fill:#FFFFFF;}
	.st1{fill:#1B1B32;}
</style>
<g>
	<polygon class="st0" points="8.2,0 8.2,4.1 4.1,4.1 4.1,8.2 0,8.2 0,61.8 4.1,61.8 4.1,65.9 8.2,65.9 8.2,70 61.8,70 61.8,65.9 
		65.9,65.9 65.9,61.8 70,61.8 70,8.2 65.9,8.2 65.9,4.1 61.8,4.1 61.8,0 	"/>
	<g>
		<rect x="16.5" y="16.5" class="st1" width="8.2" height="8.2"/>
		<rect x="16.5" y="28.8" class="st1" width="8.2" height="28.8"/>
		<polygon class="st1" points="28.8,28.8 28.8,57.6 37.1,57.6 37.1,41.2 45.3,41.2 45.3,57.6 53.5,57.6 53.5,37.1 49.4,37.1 
			49.4,32.9 37.1,32.9 37.1,28.8 		"/>
	</g>
</g>
</svg>
