<?xml version="1.0" encoding="utf-8"?>
<!-- Generator: Adobe Illustrator 25.2.3, SVG Export Plug-In . SVG Version: 6.00 Build 0)  -->
<svg version="1.1" id="Layer_1" xmlns="http://www.w3.org/2000/svg" xmlns:xlink="http://www.w3.org/1999/xlink" x="0px" y="0px"
	 viewBox="0 0 180 50" style="enable-background:new 0 0 180 50;" xml:space="preserve">
<style type="text/css">
	.st0{fill:#1B1B32;}
</style>
<g>
	<g>
		<path class="st0" d="M49.5,46.7v-6.2h-6.2v-6.2h12.5v6.2h18.7V3.1h12.5v37.4h-6.2v6.2H49.5z"/>
		<path class="st0" d="M93.1,46.7V3.1h37.4v6.2h6.2V28h-12.5v6.2h6.2v6.2h6.2v6.2H118v-6.2h-6.2v-6.2h-6.2v12.5H93.1z M105.6,28H118
			v-6.2h6.2V9.3h-18.7V28z"/>
	</g>
	<polygon class="st0" points="148.8,3.1 148.8,9.4 155,9.4 155,15.6 161.2,15.6 161.2,21.9 167.5,21.9 167.5,28.1 161.2,28.1 
		161.2,34.4 155,34.4 155,40.6 148.8,40.6 148.8,46.9 161.2,46.9 161.2,40.6 167.5,40.6 167.5,34.4 173.7,34.4 173.7,28.1 180,28.1 
		180,21.9 173.7,21.9 173.7,15.6 167.5,15.6 167.5,9.4 161.2,9.4 161.2,3.1 	"/>
	<polygon class="st0" points="18.8,3.1 18.8,9.4 12.5,9.4 12.5,15.6 6.3,15.6 6.3,21.9 0,21.9 0,28.1 6.3,28.1 6.3,34.4 12.5,34.4 
		12.5,40.6 18.8,40.6 18.8,46.9 31.2,46.9 31.2,40.6 25,40.6 25,34.4 18.8,34.4 18.8,28.1 12.5,28.1 12.5,21.9 18.8,21.9 18.8,15.6 
		25,15.6 25,9.4 31.2,9.4 31.2,3.1 	"/>
</g>
</svg>
