<?xml version="1.0" encoding="utf-8"?>
<!-- Generator: Adobe Illustrator 25.2.3, SVG Export Plug-In . SVG Version: 6.00 Build 0)  -->
<svg version="1.1" id="Layer_1" xmlns="http://www.w3.org/2000/svg" xmlns:xlink="http://www.w3.org/1999/xlink" x="0px" y="0px"
	 viewBox="0 0 290 50" style="enable-background:new 0 0 290 50;" xml:space="preserve">
<g>
	<path d="M12.2,43.6v-5.3H6.9V33h10.6v5.3h15.9V6.4h10.6v31.9h-5.3v5.3H12.2z"/>
	<path d="M54.7,43.6V33h10.6v10.6H54.7z"/>
	<path d="M75.9,43.6V6.4h31.9v5.3h5.3v15.9h-10.6V33h5.3v5.3h5.3v5.3H97.2v-5.3h-5.3V33h-5.3v10.6H75.9z M86.6,27.7h10.6v-5.3h5.3
		V11.7H86.6V27.7z"/>
	<path d="M123.8,43.6V33h10.6v10.6H123.8z"/>
	<path d="M155.6,43.6V6.4h10.6v31.9h21.2v5.3H155.6z"/>
	<path d="M198.1,43.6V6.4h37.2v5.3h-26.6v10.6H230v5.3h-21.2v10.6h26.6v5.3H198.1z"/>
	<path d="M245.9,43.6V6.4h37.2v5.3h-26.6v10.6h21.2v5.3h-21.2v10.6h26.6v5.3H245.9z"/>
</g>
</svg>
