<?xml version="1.0" encoding="utf-8"?>
<!-- Generator: Adobe Illustrator 25.2.3, SVG Export Plug-In . SVG Version: 6.00 Build 0)  -->
<svg version="1.1" id="Layer_1" xmlns="http://www.w3.org/2000/svg" xmlns:xlink="http://www.w3.org/1999/xlink" x="0px" y="0px"
	 viewBox="0 0 150 150" style="enable-background:new 0 0 150 150;" xml:space="preserve">
<style type="text/css">
	.st0{fill:#FFFFFF;}
	.st1{fill:#C1C5DB;}
	.st2{fill:#1B1B32;}
</style>
<g>
	<rect x="15.7" y="5.8" class="st0" width="118.6" height="6.6"/>
	<rect x="2.5" y="19" class="st0" width="6.6" height="112"/>
	<rect x="15.7" y="137.6" class="st0" width="118.6" height="6.6"/>
	<rect x="140.9" y="19" class="st0" width="6.6" height="112"/>
	<polygon class="st1" points="15.7,12.4 15.7,19 9.1,19 9.1,131 15.7,131 15.7,137.6 134.3,137.6 134.3,131 140.9,131 140.9,19 
		134.3,19 134.3,12.4 	"/>
	<rect x="134.3" y="131" class="st0" width="6.6" height="6.6"/>
	<rect x="9.1" y="131" class="st0" width="6.6" height="6.6"/>
	<rect x="9.1" y="12.4" class="st0" width="6.6" height="6.6"/>
	<rect x="134.3" y="12.4" class="st0" width="6.6" height="6.6"/>
	<rect x="75" y="51.9" class="st2" width="6.6" height="6.6"/>
	<rect x="75" y="91.5" class="st2" width="6.6" height="6.6"/>
	<rect x="81.6" y="58.5" class="st2" width="6.6" height="6.6"/>
	<rect x="81.6" y="84.9" class="st2" width="6.6" height="6.6"/>
	<polygon class="st2" points="114.5,51.9 114.5,65.1 121.1,65.1 121.1,84.9 114.5,84.9 114.5,98.1 121.1,98.1 121.1,91.5 
		127.7,91.5 127.7,58.5 121.1,58.5 121.1,51.9 	"/>
	<rect x="81.6" y="98.1" class="st2" width="32.9" height="6.6"/>
	<rect x="107.9" y="65.1" class="st2" width="6.6" height="19.8"/>
	<polygon class="st2" points="114.5,51.9 114.5,45.4 81.6,45.4 81.6,52 	"/>
	<rect x="88.2" y="65.1" class="st2" width="6.6" height="19.8"/>
	<rect x="68.4" y="58.5" class="st2" width="6.6" height="33"/>
	<rect x="35.5" y="51.9" class="st2" width="26.3" height="6.6"/>
	<rect x="15.7" y="65.1" class="st2" width="33" height="6.6"/>
	<rect x="28.9" y="78.3" class="st2" width="26.4" height="6.6"/>
	<rect x="42.1" y="91.5" class="st2" width="19.7" height="6.6"/>
</g>
</svg>
