<?xml version="1.0" encoding="utf-8"?>
<!-- Generator: Adobe Illustrator 25.2.3, SVG Export Plug-In . SVG Version: 6.00 Build 0)  -->
<svg version="1.1" xmlns="http://www.w3.org/2000/svg" xmlns:xlink="http://www.w3.org/1999/xlink" x="0px" y="0px"
	 viewBox="0 0 800 500" style="enable-background:new 0 0 800 500;" xml:space="preserve">
<style type="text/css">
	.st0{fill:#FFFFFF;}
	.st1{fill:#1B1B32;}
	.st2{fill:#8482BF;}
	.st3{fill:#58E0A5;}
	.st4{fill:#FC6C4A;}
</style>
<g id="screen_1_">
	<g id="screen">
		<rect x="342.4" y="211.8" class="st0" width="312.9" height="205.8"/>
		<rect x="334.1" y="211.8" class="st1" width="8.2" height="205.8"/>
		<rect x="342.4" y="417.7" class="st1" width="312.9" height="8.2"/>
		<rect x="655.3" y="211.8" class="st1" width="8.2" height="205.8"/>
		<rect x="342.4" y="203.6" class="st1" width="312.9" height="8.2"/>
		<rect x="350.6" y="220" class="st1" width="296.4" height="181.1"/>
		<rect x="457.6" y="425.9" class="st1" width="8.2" height="41.2"/>
		<rect x="531.7" y="425.9" class="st1" width="8.2" height="41.2"/>
		
			<rect x="465.9" y="425.9" transform="matrix(-1 -1.224647e-16 1.224647e-16 -1 997.6148 892.9586)" class="st0" width="65.9" height="41.2"/>
		<rect x="424.7" y="467.1" class="st1" width="148.2" height="8.2"/>
		<rect x="424.7" y="475.3" class="st0" width="148.2" height="8.2"/>
		<rect x="572.9" y="475.3" class="st1" width="8.2" height="8.2"/>
		<rect x="416.5" y="475.3" class="st1" width="8.2" height="8.2"/>
	</g>
</g>
<g id="mug_1_">
	<g id="mug">
		<rect x="688.2" y="434.1" class="st1" width="8.2" height="49.4"/>
		
			<rect x="696.4" y="434.1" transform="matrix(-1 -1.224647e-16 1.224647e-16 -1 1434.0144 917.6605)" class="st0" width="41.2" height="49.4"/>
		<rect x="737.6" y="434.1" class="st1" width="8.2" height="49.4"/>
		<rect x="745.8" y="467.1" class="st1" width="8.2" height="8.2"/>
		<rect x="754.1" y="442.4" class="st1" width="8.2" height="24.7"/>
		<rect x="745.8" y="442.4" class="st1" width="8.2" height="8.2"/>
		<rect x="696.4" y="425.9" class="st1" width="41.2" height="8.2"/>
	</g>
</g>
<g id="smoke_1_">
	<g id="smoke">
		<rect x="737.6" y="417.7" class="st1" width="8.2" height="8.2"/>
		<rect x="737.6" y="409.4" class="st1" width="8.2" height="8.2"/>
		<rect x="745.8" y="401.2" class="st1" width="8.2" height="8.2"/>
		<rect x="745.8" y="393" class="st1" width="8.2" height="8.2"/>
		<rect x="737.6" y="384.7" class="st1" width="8.2" height="8.2"/>
		<rect x="737.6" y="376.5" class="st1" width="8.2" height="8.2"/>
		<rect x="712.9" y="417.7" class="st1" width="8.2" height="8.2"/>
		<rect x="712.9" y="409.4" class="st1" width="8.2" height="8.2"/>
		<rect x="721.1" y="401.2" class="st1" width="8.2" height="8.2"/>
		<rect x="721.1" y="393" class="st1" width="8.2" height="8.2"/>
		<rect x="712.9" y="384.7" class="st1" width="8.2" height="8.2"/>
		<rect x="712.9" y="376.5" class="st1" width="8.2" height="8.2"/>
		<rect x="688.2" y="417.7" class="st1" width="8.2" height="8.2"/>
		<rect x="688.2" y="409.4" class="st1" width="8.2" height="8.2"/>
		<rect x="696.4" y="401.2" class="st1" width="8.2" height="8.2"/>
		<rect x="696.4" y="393" class="st1" width="8.2" height="8.2"/>
		<rect x="688.2" y="384.7" class="st1" width="8.2" height="8.2"/>
		<rect x="688.2" y="376.5" class="st1" width="8.2" height="8.2"/>
	</g>
</g>
<g id="code_1_">
	<g id="code">
		<rect x="358.8" y="228.3" class="st2" width="24.7" height="8.2"/>
		<rect x="391.8" y="228.3" class="st3" width="32.9" height="8.2"/>
		<rect x="358.8" y="244.7" class="st4" width="57.6" height="8.2"/>
		<rect x="432.9" y="244.7" class="st2" width="24.7" height="8.2"/>
		<rect x="465.9" y="244.7" class="st2" width="24.7" height="8.2"/>
		<rect x="358.8" y="261.2" class="st2" width="41.2" height="8.2"/>
		<rect x="408.2" y="261.2" class="st3" width="8.2" height="8.2"/>
		<rect x="424.7" y="261.2" class="st4" width="32.9" height="8.2"/>
		<rect x="358.8" y="277.7" class="st2" width="49.4" height="8.2"/>
		<rect x="416.5" y="277.7" class="st4" width="8.2" height="8.2"/>
		<rect x="432.9" y="277.7" class="st3" width="32.9" height="8.2"/>
		<rect x="474.1" y="277.7" class="st2" width="41.2" height="8.2"/>
		<rect x="358.8" y="294.2" class="st4" width="32.9" height="8.2"/>
		<rect x="400" y="294.2" class="st3" width="16.5" height="8.2"/>
		<rect x="424.7" y="294.2" class="st2" width="32.9" height="8.2"/>
		<rect x="358.8" y="310.6" class="st2" width="24.7" height="8.2"/>
		<rect x="391.8" y="310.6" class="st2" width="24.7" height="8.2"/>
		<rect x="424.7" y="310.6" class="st4" width="49.4" height="8.2"/>
		<rect x="482.3" y="310.6" class="st2" width="32.9" height="8.2"/>
		<rect x="523.5" y="310.6" class="st3" width="24.7" height="8.2"/>
		<rect x="358.8" y="327.1" class="st2" width="32.9" height="8.2"/>
		<rect x="400" y="327.1" class="st3" width="8.2" height="8.2"/>
		<rect x="416.5" y="327.1" class="st2" width="24.7" height="8.2"/>
		<rect x="449.4" y="327.1" class="st3" width="24.7" height="8.2"/>
		<rect x="358.8" y="343.6" class="st4" width="24.7" height="8.2"/>
		<rect x="391.8" y="343.6" class="st2" width="41.2" height="8.2"/>
		<rect x="441.2" y="343.6" class="st4" width="49.4" height="8.2"/>
		<rect x="498.8" y="343.6" class="st2" width="32.9" height="8.2"/>
		<rect x="358.8" y="360" class="st3" width="24.7" height="8.2"/>
		<rect x="391.8" y="360" class="st2" width="57.6" height="8.2"/>
		<rect x="457.6" y="360" class="st2" width="16.5" height="8.2"/>
		<rect x="358.8" y="376.5" class="st2" width="16.5" height="8.2"/>
		<rect x="383.5" y="376.5" class="st3" width="24.7" height="8.2"/>
		<rect x="416.5" y="376.5" class="st2" width="8.2" height="8.2"/>
		<rect x="432.9" y="376.5" class="st4" width="57.6" height="8.2"/>
		<rect x="358.8" y="393" class="st4" width="16.5" height="8.2"/>
		<rect x="383.5" y="393" class="st2" width="32.9" height="8.2"/>
		<rect x="424.7" y="393" class="st3" width="24.7" height="8.2"/>
	</g>
</g>
<g id="arm_1_">
	<g id="arm">
		<rect x="293" y="434.1" class="st1" width="8.2" height="8.2"/>
		<rect x="301.2" y="442.4" class="st1" width="8.2" height="8.2"/>
		<rect x="309.4" y="450.6" class="st1" width="8.2" height="8.2"/>
		<rect x="317.7" y="458.8" class="st1" width="8.2" height="8.2"/>
		<rect x="325.9" y="467.1" class="st1" width="8.2" height="8.2"/>
		<rect x="334.1" y="475.3" class="st1" width="8.2" height="8.2"/>
		<rect x="334.1" y="393" class="st1" width="8.2" height="8.2"/>
		<rect x="342.4" y="401.2" class="st1" width="8.2" height="8.2"/>
		<rect x="350.6" y="409.4" class="st1" width="8.2" height="8.2"/>
		<rect x="358.8" y="417.7" class="st1" width="8.2" height="8.2"/>
		<rect x="367.1" y="425.9" class="st1" width="8.2" height="8.2"/>
		<rect x="375.2" y="434.1" class="st1" width="16.5" height="8.3"/>
		<rect x="391.8" y="442.4" class="st1" width="24.7" height="8.2"/>
		<rect x="416.5" y="450.6" class="st1" width="32.9" height="8.2"/>
		<rect x="449.4" y="458.8" class="st1" width="41.2" height="8.2"/>
		<rect x="490.6" y="450.6" class="st1" width="16.5" height="8.2"/>
		<rect x="507" y="442.4" class="st1" width="16.5" height="8.2"/>
		<rect x="523.5" y="450.6" class="st1" width="16.5" height="8.2"/>
		<rect x="540" y="458.8" class="st1" width="8.2" height="8.2"/>
		<rect x="548.2" y="467.1" class="st1" width="8.2" height="16.5"/>
		<rect x="507" y="475.3" class="st1" width="24.7" height="8.2"/>
		<polygon class="st0" points="548.2,483.5 531.7,483.5 531.7,475.3 507,475.3 507,483.5 342.4,483.5 342.4,475.3 334.1,475.3 
			334.1,467.1 325.9,467.1 325.9,458.8 317.7,458.8 317.7,450.6 309.4,450.6 309.4,442.4 301.2,442.4 301.2,434.1 293,434.1 
			293,425.9 301.2,425.9 301.2,417.7 309.4,417.7 309.4,409.4 317.7,409.4 317.7,401.2 325.9,401.2 325.9,393 334.1,393 
			334.1,401.2 342.4,401.2 342.4,409.4 350.6,409.4 350.6,417.7 358.8,417.7 358.8,425.9 367.1,425.9 367.1,434.1 375.2,434.1 
			375.2,442.4 391.8,442.4 391.8,450.6 416.5,450.6 416.5,458.8 449.4,458.8 449.4,467.1 490.6,467.1 490.6,458.8 507,458.8 
			507,450.6 523.5,450.6 523.5,458.8 540,458.8 540,467.1 548.2,467.1 		"/>
	</g>
</g>
<g id="body">
	<g id="person">
		<polygon class="st0" points="276.5,483.5 276.5,467.1 268.3,467.1 268.3,425.9 293,425.9 293,417.7 301.2,417.7 301.2,409.4 
			309.4,409.4 309.4,401.2 317.7,401.2 317.7,393 325.9,393 325.9,376.5 317.7,376.5 317.7,368.3 309.4,368.3 309.4,360 301.2,360 
			301.2,351.8 293,351.8 293,343.6 284.7,343.6 284.7,335.3 276.5,335.3 276.5,327.1 268.3,327.1 268.3,318.9 260,318.9 260,310.6 
			243.6,310.6 243.6,302.4 218.9,302.4 218.9,294.2 202.4,294.2 202.4,285.9 144.7,285.9 144.7,294.2 128.3,294.2 128.3,302.4 
			120,302.4 120,310.6 103.6,310.6 103.6,318.9 95.3,318.9 95.3,335.3 87.1,335.3 87.1,393 95.3,393 95.3,409.4 103.6,409.4 
			103.6,425.9 111.8,425.9 111.8,458.8 120.1,458.8 120.1,483.5 		"/>
		<polygon class="st0" points="210.6,285.9 210.6,261.2 218.9,261.2 218.9,269.4 243.6,269.4 243.6,261.2 260,261.2 260,228.3 
			268.3,228.3 268.3,211.8 260,211.8 260,162.4 251.8,162.4 251.8,195.3 243.6,195.3 227.1,195.3 227.1,220 218.9,220 218.9,228.3 
			210.6,228.3 210.6,236.5 202.4,236.5 202.4,244.7 161.2,244.7 161.2,277.7 202.4,277.7 202.4,285.9 		"/>
		<rect x="251.8" y="401.2" class="st1" width="8.2" height="8.2"/>
		<rect x="260" y="409.4" class="st1" width="8.2" height="8.2"/>
		<rect x="276.5" y="467.1" class="st1" width="8.2" height="16.5"/>
		<polygon class="st1" points="293,425.9 276.5,425.9 276.5,417.7 268.3,417.7 268.3,467.1 276.5,467.1 276.5,434.1 293,434.1 		"/>
		<rect x="293" y="417.7" class="st1" width="8.2" height="8.2"/>
		<rect x="301.2" y="409.4" class="st1" width="8.2" height="8.2"/>
		<rect x="309.4" y="401.2" class="st1" width="8.2" height="8.2"/>
		<rect x="317.7" y="393" class="st1" width="8.2" height="8.2"/>
		<rect x="317.7" y="368.3" class="st1" width="8.2" height="8.2"/>
		<rect x="309.4" y="360" class="st1" width="8.2" height="8.2"/>
		<rect x="301.2" y="351.8" class="st1" width="8.2" height="8.2"/>
		<rect x="293" y="343.6" class="st1" width="8.2" height="8.2"/>
		<rect x="284.7" y="335.3" class="st1" width="8.2" height="8.2"/>
		<rect x="276.5" y="327.1" class="st1" width="8.2" height="8.2"/>
		<rect x="268.3" y="318.9" class="st1" width="8.2" height="8.2"/>
		<rect x="260" y="310.6" class="st1" width="8.2" height="8.2"/>
		<rect x="325.9" y="376.5" class="st1" width="8.2" height="16.5"/>
		<rect x="243.6" y="302.4" class="st1" width="16.5" height="8.2"/>
		<rect x="218.9" y="294.2" class="st1" width="24.7" height="8.2"/>
		<polygon class="st1" points="202.4,294.2 218.9,294.2 218.9,277.7 260,277.7 260,261.2 243.6,261.2 243.6,269.4 218.9,269.4 
			218.9,261.2 210.6,261.2 210.6,285.9 202.4,285.9 		"/>
		<rect x="128.3" y="285.9" class="st1" width="16.5" height="8.2"/>
		<rect x="260" y="162.4" class="st1" width="8.2" height="49.4"/>
		<polygon class="st1" points="260,228.3 260,261.2 268.3,261.2 268.3,236.5 276.5,236.5 276.5,211.8 268.3,211.8 268.3,228.3 		"/>
		<rect x="120" y="294.2" class="st1" width="8.2" height="8.2"/>
		<rect x="103.6" y="302.4" class="st1" width="16.5" height="8.2"/>
		<rect x="95.3" y="310.6" class="st1" width="8.2" height="8.2"/>
		<rect x="87.1" y="318.9" class="st1" width="8.2" height="16.5"/>
		<rect x="87.1" y="393" class="st1" width="8.2" height="16.5"/>
		<rect x="95.3" y="409.4" class="st1" width="8.2" height="16.5"/>
		<rect x="103.6" y="425.9" class="st1" width="8.2" height="32.9"/>
		<rect x="111.8" y="458.8" class="st1" width="8.2" height="24.7"/>
		<rect x="78.9" y="335.3" class="st1" width="8.2" height="57.6"/>
		<polygon class="st1" points="260,145.9 260,137.7 251.8,137.7 251.8,129.5 169.4,129.5 169.4,137.7 161.2,137.7 161.2,145.9 
			153,145.9 153,162.4 144.7,162.4 144.7,203.6 144.7,228.3 153,228.3 153,277.7 144.7,277.7 144.7,285.9 202.4,285.9 202.4,277.7 
			161.2,277.7 161.2,244.7 202.4,244.7 202.4,236.5 210.6,236.5 210.6,228.3 218.9,228.3 218.9,220 227.1,220 227.1,195.3 
			235.3,195.3 235.3,228.3 243.6,228.3 243.6,195.3 251.8,195.3 251.8,162.4 260,162.4 260,154.2 268.3,154.2 268.3,145.9 		"/>
		<rect x="235.3" y="253" class="st1" width="8.2" height="8.2"/>
		<rect x="235.3" y="121.2" class="st1" width="8.2" height="8.2"/>
		<rect x="210.6" y="121.2" class="st1" width="8.2" height="8.2"/>
		<rect x="218.9" y="121.2" class="st1" width="8.2" height="8.2"/>
		<rect x="202.4" y="121.2" class="st1" width="8.2" height="8.2"/>
		<rect x="194.2" y="121.2" class="st1" width="8.2" height="8.2"/>
		<rect x="177.7" y="121.2" class="st1" width="8.2" height="8.2"/>
		<rect x="153" y="129.5" class="st1" width="8.2" height="8.2"/>
	</g>
</g>
<g id="chair_and_table_1_">
	<g id="chair_and_table">
		<g>
			<rect x="638.8" y="483.5" class="st1" width="156.4" height="8.2"/>
			
				<rect x="4.8" y="483.5" transform="matrix(-1 -1.224647e-16 1.224647e-16 -1 643.5549 983.532)" class="st1" width="634" height="16.5"/>
			<rect x="787" y="491.8" class="st1" width="8.2" height="8.2"/>
			
				<rect x="638.8" y="491.8" transform="matrix(-1 -1.224647e-16 1.224647e-16 -1 1425.7805 991.7661)" class="st0" width="148.2" height="8.2"/>
		</g>
		<polygon class="st1" points="202.4,475.3 202.4,450.6 194.2,450.6 194.2,417.7 185.9,417.7 185.9,376.5 185.9,368.3 29.5,368.3 
			29.5,393 37.7,393 37.7,376.5 177.7,376.5 177.7,393 37.7,393 37.7,417.7 45.9,417.7 45.9,450.6 54.2,450.6 54.2,475.3 
			62.4,475.3 62.4,500 210.6,500 210.6,475.3 		"/>
		<rect x="185.9" y="376.5" class="st1" width="8.2" height="8.2"/>
		<rect x="194.2" y="384.7" class="st1" width="8.2" height="24.7"/>
		<rect x="202.4" y="409.4" class="st1" width="8.2" height="32.9"/>
		<rect x="210.6" y="442.4" class="st1" width="8.2" height="24.7"/>
		<rect x="218.9" y="467.1" class="st1" width="8.2" height="32.9"/>
		<rect x="37.7" y="376.5" class="st0" width="140" height="16.5"/>
		<polygon class="st0" points="185.9,384.7 185.9,417.7 194.2,417.7 194.2,450.6 202.4,450.6 202.4,475.3 210.6,475.3 210.6,500 
			218.9,500 218.9,467.1 210.6,467.1 210.6,442.4 202.4,442.4 202.4,409.4 194.2,409.4 194.2,384.7 		"/>
	</g>
</g>
</svg>
