<?xml version="1.0" encoding="utf-8"?>
<!-- Generator: Adobe Illustrator 25.2.3, SVG Export Plug-In . SVG Version: 6.00 Build 0)  -->
<svg version="1.1" id="Layer_1" xmlns="http://www.w3.org/2000/svg" xmlns:xlink="http://www.w3.org/1999/xlink" x="0px" y="0px"
	 viewBox="0 0 150 150" style="enable-background:new 0 0 150 150;" xml:space="preserve">
<style type="text/css">
	.st0{fill:#FFFFFF;}
	.st1{fill:#C1C5DB;}
	.st2{fill:#1B1B32;}
</style>
<g>
	<rect x="2.5" y="19" class="st0" width="6.6" height="112"/>
	<polygon class="st1" points="15.7,12.4 15.7,19 9.1,19 9.1,131 15.7,131 15.7,137.6 134.3,137.6 134.3,131 140.9,131 140.9,19 
		134.3,19 134.3,12.4 	"/>
	<rect x="9.1" y="131" class="st0" width="6.6" height="6.6"/>
	<rect x="15.7" y="137.6" class="st0" width="118.6" height="6.6"/>
	<rect x="134.3" y="131" class="st0" width="6.6" height="6.6"/>
	<rect x="9.1" y="12.4" class="st0" width="6.6" height="6.6"/>
	<rect x="140.9" y="19" class="st0" width="6.6" height="112"/>
	<rect x="15.7" y="5.8" class="st0" width="118.6" height="6.6"/>
	<rect x="134.3" y="12.4" class="st0" width="6.6" height="6.6"/>
	<rect x="140.9" y="71.7" class="st0" width="6.6" height="6.6"/>
	<polygon class="st2" points="48.7,51.9 48.7,58.5 42.1,58.5 42.1,65.1 35.5,65.1 35.5,71.7 28.9,71.7 28.9,78.3 35.5,78.3 
		35.5,84.9 42.1,84.9 42.1,91.5 48.7,91.5 48.7,98.1 35.5,98.1 35.5,91.5 28.9,91.5 28.9,84.9 22.3,84.9 22.3,78.3 15.7,78.3 
		15.7,71.7 22.3,71.7 22.3,65.1 28.9,65.1 28.9,58.5 35.5,58.5 35.5,51.9 	"/>
	<polygon class="st2" points="61.8,104.7 61.8,98.1 68.4,98.1 68.4,91.5 75,91.5 75,78.3 81.6,78.3 81.6,71.7 88.2,71.7 88.2,58.5 
		94.8,58.5 94.8,45.4 88.2,45.4 88.2,51.9 81.6,51.9 81.6,58.5 75,58.5 75,71.7 68.4,71.7 68.4,78.3 61.8,78.3 61.8,91.5 55.2,91.5 
		55.2,104.7 	"/>
	<polygon class="st2" points="101.4,51.9 101.4,58.5 107.9,58.5 107.9,65.1 114.5,65.1 114.5,71.7 121.1,71.7 121.1,78.3 
		114.5,78.3 114.5,84.9 107.9,84.9 107.9,91.5 101.4,91.5 101.4,98.1 114.5,98.1 114.5,91.5 121.1,91.5 121.1,84.9 127.7,84.9 
		127.7,78.3 134.3,78.3 134.3,71.7 127.7,71.7 127.7,65.1 121.1,65.1 121.1,58.5 114.5,58.5 114.5,51.9 	"/>
</g>
</svg>
